<svg width="256" height="256" viewBox="0 0 256 256" fill="none" xmlns="http://www.w3.org/2000/svg">
<path d="M58 58C58 41.4315 71.4315 28 88 28H98V228H88C71.4315 228 58 214.569 58 198V58Z" fill="#8FABB7"/>
<path d="M148 28C154.566 28 161.068 29.2931 167.134 31.8057C173.2 34.3184 178.713 38.0016 183.355 42.6445C187.998 47.2875 191.682 52.7999 194.194 58.8662C196.707 64.9324 198 71.4341 198 78C198 84.5659 196.707 91.0676 194.194 97.1338C191.682 103.2 187.998 108.713 183.355 113.355C178.713 117.998 173.2 121.682 167.134 124.194C161.068 126.707 154.566 128 148 128H128V108H148C164.569 108 178 94.5685 178 78C178 61.4315 164.569 48 148 48H128V28H148Z" fill="#46656F"/>
<circle cx="148" cy="178" r="50" fill="#01070A"/>
</svg>
